<?xml version="1.0" encoding="UTF-8" standalone="no"?>
<!DOCTYPE svg PUBLIC "-//W3C//DTD SVG 1.1//EN" "http://www.w3.org/Graphics/SVG/1.1/DTD/svg11.dtd">
<svg version="1.1" xmlns="http://www.w3.org/2000/svg" xmlns:xlink="http://www.w3.org/1999/xlink" preserveAspectRatio="xMidYMid meet" viewBox="344.5639097744361 330.27819548872174 111.73684210526318 91.21804511278197" width="53.87" height="43.61"><defs><path d="M1850 2704 c-14 -3 -60 -17 -102 -31 l-77 -26 -53 23 c-78 34 -169
38 -260 10 -174 -52 -344 -181 -455 -345 -86 -127 -123 -224 -162 -425 -22
-110 -56 -218 -115 -360 -46 -112 -70 -235 -62 -314 12 -112 65 -269 120 -351
69 -104 117 -187 112 -193 -3 -3 -16 -10 -28 -16 -14 -7 -41 -48 -70 -106 -26
-52 -51 -98 -55 -103 -4 -4 -35 -33 -68 -65 -69 -66 -101 -126 -156 -289 l-38
-113 664 0 664 0 3 22 c2 15 9 22 20 20 39 -6 30 40 -24 113 -26 35 -39 44
-63 45 -47 0 -165 27 -236 54 -35 13 -113 41 -174 61 -192 66 -297 131 -340
214 -8 17 -34 40 -56 51 -49 26 -55 39 -34 82 35 69 65 97 140 133 100 47 154
48 222 2 65 -44 178 -139 233 -197 44 -47 105 -82 165 -95 17 -4 51 -14 76
-22 45 -15 46 -15 70 9 23 23 29 24 154 22 113 -1 137 2 185 21 30 12 73 28
95 35 70 22 127 56 244 144 67 50 120 97 127 113 6 15 30 46 53 68 38 36 43
38 52 23 20 -36 60 -22 125 46 72 76 110 139 131 221 36 139 -24 352 -170 610
-32 55 -78 154 -104 220 -56 144 -140 311 -192 380 -61 81 -161 174 -231 216
-117 69 -251 107 -330 93z m111 -545 c74 -23 159 -54 190 -69 143 -73 260
-286 289 -530 13 -103 40 -220 51 -220 6 0 6 -52 0 -102 -1 -4 -16 -4 -35 -1
l-35 5 -17 -58 c-24 -83 -48 -137 -91 -202 -41 -62 -161 -186 -233 -243 -54
-42 -170 -96 -226 -105 -82 -13 -218 32 -338 112 -32 21 -72 46 -88 54 -16 9
-26 19 -23 22 3 3 -7 12 -24 19 -16 7 -28 16 -25 20 2 4 -5 10 -16 14 -38 12
-207 236 -194 257 4 7 2 8 -4 4 -8 -4 -12 0 -12 11 0 11 -3 14 -8 7 -4 -6 -14
-12 -22 -12 -8 -1 -30 -4 -47 -8 l-33 -6 25 54 c16 35 27 80 30 124 6 93 23
229 41 339 15 94 60 225 77 225 5 0 6 7 3 16 -3 8 -2 12 4 9 6 -3 10 -1 10 5
0 17 80 99 123 127 22 14 35 28 31 35 -4 6 -3 8 4 4 6 -3 37 5 69 20 32 14 81
34 108 44 28 10 79 32 115 49 82 39 116 37 301 -20z"/>
<path d="M2075 1789 c-56 -13 -125 -39 -125 -48 0 -18 15 -17 108 5 104 26
165 30 206 14 36 -13 33 6 -4 25 -32 17 -120 19 -185 4z"/>
<path d="M1324 1741 c-35 -9 -94 -42 -94 -53 0 -11 7 -10 42 8 26 14 57 16
175 13 152 -4 190 7 93 28 -62 13 -170 15 -216 4z"/>
<path d="M2095 1621 c-46 -11 -68 -26 -113 -75 -52 -57 -56 -83 -4 -33 42 41
52 45 52 22 0 -27 27 -70 53 -84 26 -14 92 -6 82 9 -7 12 38 42 56 38 10 -2
16 11 19 42 l5 45 28 -27 c17 -17 27 -22 27 -13 0 24 -51 63 -96 74 -47 12
-65 12 -109 2z m15 -40 c0 -11 -26 -22 -34 -14 -12 12 -5 23 14 23 11 0 20 -4
20 -9z"/>
<path d="M1372 1566 c-54 -18 -108 -58 -115 -87 -6 -21 -5 -21 21 3 24 23 64
48 75 48 2 0 7 -17 11 -38 10 -67 94 -121 143 -93 10 6 12 11 6 11 -21 0 -15
17 13 35 19 12 29 14 34 6 4 -7 11 -2 19 15 12 26 12 26 33 8 l21 -19 -17 33
c-37 72 -150 109 -244 78z m78 -25 c0 -15 -16 -22 -34 -15 -25 9 -19 24 9 24
14 0 25 -4 25 -9z"/>
<path d="M1870 1129 c-14 -6 -54 -9 -88 -7 -54 3 -61 2 -46 -9 24 -17 96 -17
139 1 19 8 35 17 35 20 0 8 -11 6 -40 -5z"/>
<path d="M2058 1075 c-15 -8 -72 -31 -128 -51 -100 -35 -102 -36 -183 -25
-153 20 -187 23 -187 18 0 -3 22 -13 49 -22 167 -55 337 -32 455 64 41 33 39
40 -6 16z"/>
<path d="M2920 737 c0 -1 11 -24 25 -51 43 -86 26 -145 -48 -165 -24 -7 -62
-28 -83 -47 -77 -68 -220 -126 -409 -165 -55 -12 -125 -27 -155 -35 -30 -8
-112 -17 -182 -21 l-128 -6 -24 -31 c-13 -17 -32 -40 -43 -51 -10 -11 -27 -31
-36 -45 l-18 -25 7 30 c4 17 18 45 31 62 22 31 23 33 5 33 -13 0 -23 -12 -32
-41 -8 -23 -21 -49 -29 -57 -12 -11 -13 -16 -3 -20 15 -5 16 -33 1 -29 -6 1
-14 -4 -17 -12 -3 -8 0 -11 7 -7 6 4 11 2 11 -3 0 -6 9 -11 20 -11 14 0 20 -6
18 -18 -3 -16 40 -17 770 -20 424 -1 772 0 772 2 0 2 -21 64 -46 137 -62 181
-94 239 -172 308 -51 45 -72 74 -108 146 -52 103 -65 120 -105 134 -16 5 -29
9 -29 8z"/>
<path d="M1700 206 c0 -10 43 -77 47 -73 6 7 -29 77 -39 77 -4 0 -8 -2 -8 -4z"/>
<path d="M1740 10 c0 -5 5 -10 10 -10 6 0 10 5 10 10 0 6 -4 10 -10 10 -5 0
-10 -4 -10 -10z"/><linearGradient id="gradientk1wNV9Ostb" gradientUnits="userSpaceOnUse" x1="377.89" y1="331.28" x2="377.89" y2="418.5"><stop style="stop-color: #06b6d4;stop-opacity: 1" offset="0%"></stop><stop style="stop-color: #67e8f9;stop-opacity: 1" offset="100%"></stop></linearGradient></defs><g><g><use xlink:href="#aFZf6T5ED" opacity="1" fill="url(#gradientb2ThqnP5Op)"></use></g><g><use xlink:href="#a9fehgwfM" opacity="1" fill="url(#gradientk1wNV9Ostb)"></use></g></g></svg>